<?xml version="1.0" encoding="UTF-8"?>
<svg xmlns="http://www.w3.org/2000/svg" height="1000" width="2000">
   <line x1="100"
         y1="800"
         x2="1500"
         y2="800"
         stroke="black"
         stroke-width="2"/>
   <line x1="100"
         y1="800"
         x2="100"
         y2="300"
         stroke="black"
         stroke-width="2"/>
   <line x1="100"
         y1="750"
         x2="1500"
         y2="750"
         stroke="gray"
         stroke-width="1"/>
   <line x1="100"
         y1="700"
         x2="1500"
         y2="700"
         stroke="gray"
         stroke-width="1"/>
   <line x1="100"
         y1="650"
         x2="1500"
         y2="650"
         stroke="gray"
         stroke-width="1"/>
   <line x1="100"
         y1="600"
         x2="1500"
         y2="600"
         stroke="gray"
         stroke-width="1"/>
   <line x1="100"
         y1="550"
         x2="1500"
         y2="550"
         stroke="gray"
         stroke-width="1"/>
   <line x1="100"
         y1="500"
         x2="1500"
         y2="500"
         stroke="gray"
         stroke-width="1"/>
   <line x1="100"
         y1="450"
         x2="1500"
         y2="450"
         stroke="gray"
         stroke-width="1"/>
   <line x1="100"
         y1="400"
         x2="1500"
         y2="400"
         stroke="gray"
         stroke-width="1"/>
   <line x1="100"
         y1="350"
         x2="1500"
         y2="350"
         stroke="gray"
         stroke-width="1"/>
   <line x1="100"
         y1="300"
         x2="1500"
         y2="300"
         stroke="gray"
         stroke-width="1"/>
   <text x="65" y="800" fill="gray">0%</text>
   <text x="65" y="750" fill="gray">10%</text>
   <text x="65" y="700" fill="gray">20%</text>
   <text x="65" y="650" fill="gray">30%</text>
   <text x="65" y="600" fill="gray">40%</text>
   <text x="65" y="550" fill="gray">50%</text>
   <text x="65" y="500" fill="gray">60%</text>
   <text x="65" y="450" fill="gray">70%</text>
   <text x="65" y="400" fill="gray">80%</text>
   <text x="65" y="350" fill="gray">90%</text>
   <text x="60" y="300" fill="gray">100%</text>
   <text x="600" y="250" fill="black" font-size="30">Populist</text>
   <text x="600" y="850" fill="black" font-size="20">Federalist Paper</text>
   <text x="30"
         y="500"
         fill="black"
         writing-mode="tb"
         font-size="20">Topic Relevance</text>
   <rect width="40"
         height="95"
         fill="blue"
         stroke="black"
         stroke-width="1"
         x="160"
         y="705"/>
   <text x="160" y="820" fill="black">FP-11</text>
   <rect width="40"
         height="100"
         fill="blue"
         stroke="black"
         stroke-width="1"
         x="210"
         y="700"/>
   <text x="210" y="820" fill="black">FP-12</text>
   <rect width="40"
         height="70.00000000000001"
         fill="blue"
         stroke="black"
         stroke-width="1"
         x="260"
         y="730"/>
   <text x="260" y="820" fill="black">FP-13</text>
   <rect width="40"
         height="75"
         fill="blue"
         stroke="black"
         stroke-width="1"
         x="310"
         y="725"/>
   <text x="310" y="820" fill="black">FP-15</text>
   <rect width="40"
         height="30"
         fill="blue"
         stroke="black"
         stroke-width="1"
         x="360"
         y="770"/>
   <text x="360" y="820" fill="black">FP-24</text>
   <rect width="40"
         height="65"
         fill="blue"
         stroke="black"
         stroke-width="1"
         x="410"
         y="735"/>
   <text x="410" y="820" fill="black">FP-26</text>
   <rect width="40"
         height="40"
         fill="blue"
         stroke="black"
         stroke-width="1"
         x="460"
         y="760"/>
   <text x="460" y="820" fill="black">FP-29</text>
   <rect width="40"
         height="50"
         fill="blue"
         stroke="black"
         stroke-width="1"
         x="510"
         y="750"/>
   <text x="510" y="820" fill="black">FP-30</text>
   <rect width="40"
         height="15"
         fill="blue"
         stroke="black"
         stroke-width="1"
         x="560"
         y="785"/>
   <text x="560" y="820" fill="black">FP-31</text>
   <rect width="40"
         height="0"
         fill="blue"
         stroke="black"
         stroke-width="1"
         x="610"
         y="800"/>
   <text x="610" y="820" fill="black">FP-32</text>
   <rect width="40"
         height="25"
         fill="blue"
         stroke="black"
         stroke-width="1"
         x="660"
         y="775"/>
   <text x="660" y="820" fill="black">FP-59</text>
   <rect width="40"
         height="30"
         fill="blue"
         stroke="black"
         stroke-width="1"
         x="710"
         y="770"/>
   <text x="710" y="820" fill="black">FP-65</text>
   <rect width="40"
         height="10"
         fill="blue"
         stroke="black"
         stroke-width="1"
         x="760"
         y="790"/>
   <text x="760" y="820" fill="black">FP-67</text>
   <rect width="40"
         height="0"
         fill="blue"
         stroke="black"
         stroke-width="1"
         x="810"
         y="800"/>
   <text x="810" y="820" fill="black">FP-68</text>
   <rect width="40"
         height="0"
         fill="blue"
         stroke="black"
         stroke-width="1"
         x="860"
         y="800"/>
   <text x="860" y="820" fill="black">FP-69</text>
   <rect width="40"
         height="35.00000000000001"
         fill="blue"
         stroke="black"
         stroke-width="1"
         x="910"
         y="765"/>
   <text x="910" y="820" fill="black">FP-73</text>
   <rect width="40"
         height="10"
         fill="blue"
         stroke="black"
         stroke-width="1"
         x="960"
         y="790"/>
   <text x="960" y="820" fill="black">FP-74</text>
   <rect width="40"
         height="40"
         fill="blue"
         stroke="black"
         stroke-width="1"
         x="1010"
         y="760"/>
   <text x="1010" y="820" fill="black">FP-79</text>
   <rect width="40"
         height="5"
         fill="blue"
         stroke="black"
         stroke-width="1"
         x="1060"
         y="795"/>
   <text x="1060" y="820" fill="black">FP-80</text>
   <rect width="40"
         height="5"
         fill="blue"
         stroke="black"
         stroke-width="1"
         x="1110"
         y="795"/>
   <text x="1110" y="820" fill="black">FP-81</text>
   <rect width="40"
         height="15"
         fill="blue"
         stroke="black"
         stroke-width="1"
         x="1160"
         y="785"/>
   <text x="1160" y="820" fill="black">FP-83</text>
   <rect width="40"
         height="35.00000000000001"
         fill="blue"
         stroke="black"
         stroke-width="1"
         x="1210"
         y="765"/>
   <text x="1210" y="820" fill="black">FP-84</text>
   <rect width="40"
         height="85"
         fill="blue"
         stroke="black"
         stroke-width="1"
         x="1260"
         y="715"/>
   <text x="1260" y="820" fill="black">FP-85</text>
   <rect width="40"
         height="40"
         fill="blue"
         stroke="black"
         stroke-width="1"
         x="1310"
         y="760"/>
   <text x="1310" y="820" fill="black">FP-9</text>
</svg>
